<?xml version="1.0" encoding="UTF-8" ?>
<!DOCTYPE svg PUBLIC "-//W3C//DTD SVG 1.1//EN" "http://www.w3.org/Graphics/SVG/1.1/DTD/svg11.dtd">
<svg width="512pt" height="512pt" viewBox="0 0 512 512" version="1.1" xmlns="http://www.w3.org/2000/svg">
<g id="#953528ff">
<path fill="#953528" opacity="1.00" d=" M 64.14 49.88 C 62.59 33.23 76.45 17.22 93.11 16.17 C 105.46 15.85 117.83 15.95 130.19 16.14 C 122.88 18.19 115.72 21.88 111.00 27.99 C 105.85 34.59 103.00 43.31 104.44 51.66 C 105.55 57.69 110.80 61.74 116.15 63.98 C 114.77 63.97 113.39 63.97 112.01 63.98 C 101.34 64.00 90.66 64.04 79.98 63.97 C 72.16 64.15 64.87 57.67 64.14 49.88 Z" />
<path fill="#953528" opacity="1.00" d=" M 80.11 303.92 C 79.89 295.43 87.51 287.84 96.00 288.03 C 101.33 287.92 106.67 288.03 112.00 288.00 C 112.10 312.00 112.27 336.00 112.33 360.00 C 112.35 372.68 112.19 385.37 112.91 398.02 C 114.39 416.52 131.51 431.80 149.93 431.94 C 195.95 432.10 241.96 431.92 287.98 432.03 C 287.98 437.34 288.01 442.66 287.98 447.97 C 221.31 448.05 154.65 447.96 87.98 448.02 C 86.03 452.42 84.29 457.11 84.72 462.02 C 85.14 471.11 93.06 478.99 102.05 479.78 C 107.02 480.26 112.02 479.96 117.00 480.00 C 222.00 479.99 327.00 480.01 432.00 480.00 C 439.15 479.86 446.34 480.49 453.45 479.44 L 453.92 479.38 C 454.51 483.32 457.11 487.39 455.24 491.36 C 453.88 494.51 450.41 496.18 447.08 495.99 C 319.69 496.01 192.31 496.01 64.92 495.99 C 61.58 496.19 58.13 494.49 56.76 491.35 C 55.18 488.19 56.64 484.72 57.67 481.65 C 60.49 473.74 62.92 465.70 65.89 457.84 C 68.27 451.79 74.53 448.25 80.82 447.77 C 80.56 399.82 80.29 351.87 80.11 303.92 Z" />
<path fill="#953528" opacity="1.00" d=" M 392.02 432.03 C 405.34 431.99 418.67 431.96 431.99 432.05 C 432.01 437.36 432.01 442.67 432.00 447.98 C 418.68 447.98 405.35 448.04 392.03 447.98 C 391.99 442.66 392.01 437.35 392.02 432.03 Z" />
</g>
<g id="#c64635ff">
<path fill="#c64635" opacity="1.00" d=" M 130.19 16.14 C 163.45 15.82 196.73 16.09 230.00 16.00 C 289.67 16.00 349.33 16.00 409.00 16.00 C 414.82 16.07 420.84 15.45 426.40 17.59 C 439.11 21.75 448.46 34.62 448.04 48.05 C 448.43 56.58 440.55 64.46 432.01 64.02 C 326.72 63.96 221.43 64.04 116.15 63.98 C 110.80 61.74 105.55 57.69 104.44 51.66 C 103.00 43.31 105.85 34.59 111.00 27.99 C 115.72 21.88 122.88 18.19 130.19 16.14 Z" />
<path fill="#c64635" opacity="1.00" d=" M 300.75 165.80 C 313.79 159.91 326.66 153.61 339.81 147.97 C 342.14 154.03 343.91 160.41 343.94 166.96 C 344.38 175.75 341.52 184.20 337.88 192.07 C 336.91 192.27 335.94 192.49 334.98 192.74 C 321.42 195.48 309.50 204.11 302.28 215.85 C 300.73 215.90 299.18 215.97 297.64 216.06 C 296.54 214.20 295.32 212.42 294.03 210.70 C 284.86 198.03 269.23 191.49 253.84 191.43 C 253.39 190.35 252.94 189.27 252.50 188.20 C 268.50 180.55 284.69 173.31 300.75 165.80 Z" />
<path fill="#c64635" opacity="1.00" d=" M 112.00 288.00 C 131.10 287.95 150.20 288.11 169.30 287.92 C 173.76 288.03 178.23 288.03 182.70 287.92 C 204.90 288.06 227.10 288.04 249.30 287.93 C 253.77 288.04 258.23 288.05 262.70 287.94 C 288.54 288.03 314.39 288.07 340.23 287.91 C 342.74 287.95 345.26 287.94 347.78 287.90 C 370.52 288.12 393.27 287.96 416.01 287.98 C 424.54 287.50 432.42 295.43 432.01 303.94 C 431.98 346.64 432.02 389.35 431.99 432.05 C 418.67 431.96 405.34 431.99 392.02 432.03 C 391.94 424.67 392.09 417.30 391.96 409.94 C 391.59 391.89 380.69 374.64 364.81 366.18 C 355.66 361.18 345.00 359.10 334.64 360.32 C 315.26 362.06 297.72 375.84 291.18 394.13 C 286.56 406.24 288.36 419.39 287.98 432.03 C 241.96 431.92 195.95 432.10 149.93 431.94 C 131.51 431.80 114.39 416.52 112.91 398.02 C 112.19 385.37 112.35 372.68 112.33 360.00 C 112.27 336.00 112.10 312.00 112.00 288.00 M 297.30 312.40 C 291.33 313.53 287.12 319.89 288.22 325.85 C 288.95 331.93 294.92 336.39 300.94 335.98 C 323.63 336.05 346.32 335.95 369.02 336.03 C 372.82 336.03 377.07 335.77 379.94 332.92 C 385.23 328.51 385.22 319.48 379.94 315.07 C 376.52 311.71 371.42 311.98 366.99 311.96 C 345.65 312.03 324.32 312.01 302.98 311.97 C 301.08 312.00 299.17 312.04 297.30 312.40 M 143.81 326.83 C 139.68 325.85 135.00 325.90 131.38 328.37 C 125.46 331.83 123.17 339.48 125.31 345.84 C 122.39 352.15 120.23 358.92 120.10 365.92 C 119.38 379.42 124.85 393.06 134.60 402.39 C 144.58 412.23 159.04 417.23 172.97 415.71 C 179.30 415.33 185.09 412.62 191.04 410.73 C 197.10 412.76 204.25 410.02 207.55 404.58 C 209.91 400.94 210.13 396.33 209.15 392.21 C 218.00 378.46 218.04 359.91 210.42 345.61 C 203.05 331.37 188.07 321.39 172.06 320.21 C 162.29 319.47 152.06 321.38 143.81 326.83 Z" />
<path fill="#c64635" opacity="1.00" d=" M 87.98 448.02 C 154.65 447.96 221.31 448.05 287.98 447.97 C 317.31 448.02 346.64 448.00 375.98 447.98 C 381.33 448.00 386.68 448.00 392.03 447.98 C 405.35 448.04 418.68 447.98 432.00 447.98 C 438.69 447.97 444.78 452.86 446.82 459.14 C 449.05 465.89 451.67 472.54 453.45 479.44 C 446.34 480.49 439.15 479.86 432.00 480.00 C 327.00 480.01 222.00 479.99 117.00 480.00 C 112.02 479.96 107.02 480.26 102.05 479.78 C 93.06 478.99 85.14 471.11 84.72 462.02 C 84.29 457.11 86.03 452.42 87.98 448.02 Z" />
</g>
<g id="#88898dff">
<path fill="#88898d" opacity="1.00" d=" M 79.98 63.97 C 90.66 64.04 101.34 64.00 112.01 63.98 C 112.15 70.53 111.48 77.14 112.46 83.65 C 113.49 89.70 118.80 93.75 124.15 95.98 C 114.76 95.95 105.37 96.08 95.98 95.97 C 88.18 96.14 80.87 89.69 80.15 81.90 C 79.78 75.93 80.12 69.95 79.98 63.97 Z" />
<path fill="#88898d" opacity="1.00" d=" M 143.81 326.83 C 152.06 321.38 162.29 319.47 172.06 320.21 C 188.07 321.39 203.05 331.37 210.42 345.61 C 218.04 359.91 218.00 378.46 209.15 392.21 C 206.42 387.04 201.90 383.23 197.85 379.15 C 184.18 365.48 170.51 351.82 156.84 338.15 C 152.76 334.10 148.96 329.58 143.81 326.83 Z" />
<path fill="#88898d" opacity="1.00" d=" M 125.31 345.84 C 128.07 350.83 132.46 354.58 136.42 358.57 C 150.26 372.40 164.10 386.24 177.92 400.08 C 181.91 404.04 185.67 408.59 191.04 410.73 C 185.09 412.62 179.30 415.33 172.97 415.71 C 159.04 417.23 144.58 412.23 134.60 402.39 C 124.85 393.06 119.38 379.42 120.10 365.92 C 120.23 358.92 122.39 352.15 125.31 345.84 Z" />
</g>
<g id="#a0a1a4ff">
<path fill="#a0a1a4" opacity="1.00" d=" M 112.01 63.98 C 113.39 63.97 114.77 63.97 116.15 63.98 C 221.43 64.04 326.72 63.96 432.01 64.02 C 431.97 69.36 432.03 74.71 432.01 80.05 C 432.46 88.58 424.53 96.48 416.01 96.01 C 320.01 96.00 224.00 95.97 127.99 96.02 C 126.71 96.02 125.43 96.01 124.15 95.98 C 118.80 93.75 113.49 89.70 112.46 83.65 C 111.48 77.14 112.15 70.53 112.01 63.98 Z" />
</g>
<g id="#76d8ffff">
<path fill="#76d8ff" opacity="1.00" d=" M 95.98 95.97 C 105.37 96.08 114.76 95.95 124.15 95.98 C 125.43 96.01 126.71 96.02 127.99 96.02 C 128.00 118.68 128.00 141.34 128.00 164.00 C 127.44 180.14 128.77 197.07 137.01 211.35 C 131.41 219.81 127.55 229.74 127.97 240.02 C 127.98 255.46 135.84 270.63 148.60 279.36 C 154.72 283.82 162.05 286.04 169.30 287.92 C 150.20 288.11 131.10 287.95 112.00 288.00 C 106.67 288.03 101.33 287.92 96.00 288.03 C 95.99 224.01 96.02 159.99 95.98 95.97 Z" />
<path fill="#76d8ff" opacity="1.00" d=" M 352.87 287.19 C 369.81 284.61 383.88 271.58 389.74 255.75 C 398.49 256.21 407.25 255.93 416.00 256.01 C 416.00 266.66 415.99 277.32 416.01 287.98 C 393.27 287.96 370.52 288.12 347.78 287.90 C 349.48 287.70 351.17 287.45 352.87 287.19 Z" />
<path fill="#76d8ff" opacity="1.00" d=" M 279.05 282.08 C 288.36 277.17 295.29 268.82 300.10 259.60 C 307.20 275.34 323.01 286.51 340.23 287.91 C 314.39 288.07 288.54 288.03 262.70 287.94 C 268.28 286.41 273.96 284.93 279.05 282.08 Z" />
<path fill="#76d8ff" opacity="1.00" d=" M 198.39 282.43 C 205.40 278.78 211.34 273.26 215.85 266.80 C 216.54 267.62 217.24 268.45 217.94 269.28 C 222.12 274.39 227.12 278.90 232.96 282.05 C 238.03 284.94 243.73 286.37 249.30 287.93 C 227.10 288.04 204.90 288.06 182.70 287.92 C 188.05 286.47 193.48 285.06 198.39 282.43 Z" />
</g>
<g id="#ccf1ffff">
<path fill="#ccf1ff" opacity="1.00" d=" M 127.99 96.02 C 224.00 95.97 320.01 96.00 416.01 96.01 C 415.98 149.34 416.01 202.67 416.00 256.01 C 407.25 255.93 398.49 256.21 389.74 255.75 C 392.16 248.79 392.57 241.28 391.91 233.99 C 389.98 216.84 377.96 201.33 361.86 195.11 C 354.33 191.87 345.96 191.40 337.88 192.07 C 341.52 184.20 344.38 175.75 343.94 166.96 C 343.91 160.41 342.14 154.03 339.81 147.97 C 334.00 133.79 320.35 123.49 305.47 120.50 C 295.34 118.86 284.58 119.65 275.29 124.26 C 263.49 129.69 254.32 140.16 250.14 152.41 C 244.56 143.92 237.20 136.32 227.72 132.27 C 220.65 128.96 212.77 127.73 205.00 128.05 C 191.73 128.63 178.98 135.35 170.68 145.67 C 163.51 154.39 159.58 165.73 159.95 177.03 C 159.88 182.71 161.45 188.21 162.93 193.64 C 152.55 196.26 143.44 202.88 137.01 211.35 C 128.77 197.07 127.44 180.14 128.00 164.00 C 128.00 141.34 128.00 118.68 127.99 96.02 Z" />
</g>
<g id="#f4dad7ff">
<path fill="#f4dad7" opacity="1.00" d=" M 275.29 124.26 C 284.58 119.65 295.34 118.86 305.47 120.50 C 320.35 123.49 334.00 133.79 339.81 147.97 C 326.66 153.61 313.79 159.91 300.75 165.80 C 284.69 173.31 268.50 180.55 252.50 188.20 C 247.15 177.09 246.81 164.16 250.14 152.41 C 254.32 140.16 263.49 129.69 275.29 124.26 Z" />
</g>
<g id="#94d531ff">
<path fill="#94d531" opacity="1.00" d=" M 170.68 145.67 C 178.98 135.35 191.73 128.63 205.00 128.05 C 204.51 128.38 203.53 129.04 203.03 129.38 C 204.77 148.58 207.15 167.72 209.24 186.89 C 209.98 193.61 210.92 200.32 211.09 207.08 C 203.80 199.55 194.16 194.21 183.78 192.54 C 176.84 191.52 169.73 191.98 162.93 193.64 C 161.45 188.21 159.88 182.71 159.95 177.03 C 159.58 165.73 163.51 154.39 170.68 145.67 Z" />
<path fill="#94d531" opacity="1.00" d=" M 228.39 200.38 C 235.82 195.03 244.85 192.50 253.84 191.43 C 269.23 191.49 284.86 198.03 294.03 210.70 C 273.64 226.01 253.74 241.95 233.54 257.51 C 228.37 261.48 223.38 265.68 217.94 269.28 C 217.24 268.45 216.54 267.62 215.85 266.80 C 221.04 258.87 224.00 249.50 223.99 240.01 C 224.10 230.17 220.90 220.42 215.32 212.35 C 219.87 208.56 223.34 203.58 228.39 200.38 Z" />
</g>
<g id="#78b22aff">
<path fill="#78b22a" opacity="1.00" d=" M 205.00 128.05 C 212.77 127.73 220.65 128.96 227.72 132.27 C 237.20 136.32 244.56 143.92 250.14 152.41 C 246.81 164.16 247.15 177.09 252.50 188.20 C 252.94 189.27 253.39 190.35 253.84 191.43 C 244.85 192.50 235.82 195.03 228.39 200.38 C 223.34 203.58 219.87 208.56 215.32 212.35 C 214.01 210.52 212.62 208.74 211.09 207.08 C 210.92 200.32 209.98 193.61 209.24 186.89 C 207.15 167.72 204.77 148.58 203.03 129.38 C 203.53 129.04 204.51 128.38 205.00 128.05 Z" />
<path fill="#78b22a" opacity="1.00" d=" M 233.54 257.51 C 253.74 241.95 273.64 226.01 294.03 210.70 C 295.32 212.42 296.54 214.20 297.64 216.06 C 298.46 217.51 299.26 218.99 300.06 220.47 C 294.71 232.81 294.73 247.26 300.10 259.60 C 295.29 268.82 288.36 277.17 279.05 282.08 C 273.96 284.93 268.28 286.41 262.70 287.94 C 258.23 288.05 253.77 288.04 249.30 287.93 C 243.73 286.37 238.03 284.94 232.96 282.05 C 227.12 278.90 222.12 274.39 217.94 269.28 C 223.38 265.68 228.37 261.48 233.54 257.51 Z" />
</g>
<g id="#fff7dfff">
<path fill="#fff7df" opacity="1.00" d=" M 162.93 193.64 C 169.73 191.98 176.84 191.52 183.78 192.54 C 194.16 194.21 203.80 199.55 211.09 207.08 C 212.62 208.74 214.01 210.52 215.32 212.35 C 220.90 220.42 224.10 230.17 223.99 240.01 C 191.99 240.01 159.98 239.97 127.97 240.02 C 127.55 229.74 131.41 219.81 137.01 211.35 C 143.44 202.88 152.55 196.26 162.93 193.64 Z" />
<path fill="#fff7df" opacity="1.00" d=" M 334.98 192.74 C 335.94 192.49 336.91 192.27 337.88 192.07 C 345.96 191.40 354.33 191.87 361.86 195.11 C 377.96 201.33 389.98 216.84 391.91 233.99 C 392.57 241.28 392.16 248.79 389.74 255.75 C 383.88 271.58 369.81 284.61 352.87 287.19 C 346.71 255.74 341.35 224.14 334.98 192.74 Z" />
</g>
<g id="#ffd55dff">
<path fill="#ffd55d" opacity="1.00" d=" M 302.28 215.85 C 309.50 204.11 321.42 195.48 334.98 192.74 C 341.35 224.14 346.71 255.74 352.87 287.19 C 351.17 287.45 349.48 287.70 347.78 287.90 C 345.26 287.94 342.74 287.95 340.23 287.91 C 323.01 286.51 307.20 275.34 300.10 259.60 C 294.73 247.26 294.71 232.81 300.06 220.47 C 300.73 218.90 301.47 217.36 302.28 215.85 Z" />
<path fill="#ffd55d" opacity="1.00" d=" M 127.97 240.02 C 159.98 239.97 191.99 240.01 223.99 240.01 C 224.00 249.50 221.04 258.87 215.85 266.80 C 211.34 273.26 205.40 278.78 198.39 282.43 C 193.48 285.06 188.05 286.47 182.70 287.92 C 178.23 288.03 173.76 288.03 169.30 287.92 C 162.05 286.04 154.72 283.82 148.60 279.36 C 135.84 270.63 127.98 255.46 127.97 240.02 Z" />
</g>
<g id="#caebe6ff">
<path fill="#caebe6" opacity="1.00" d=" M 297.64 216.06 C 299.18 215.97 300.73 215.90 302.28 215.85 C 301.47 217.36 300.73 218.90 300.06 220.47 C 299.26 218.99 298.46 217.51 297.64 216.06 Z" />
</g>
<g id="#70281eff">
<path fill="#70281e" opacity="1.00" d=" M 297.30 312.40 C 299.17 312.04 301.08 312.00 302.98 311.97 C 324.32 312.01 345.65 312.03 366.99 311.96 C 371.42 311.98 376.52 311.71 379.94 315.07 C 385.22 319.48 385.23 328.51 379.94 332.92 C 377.07 335.77 372.82 336.03 369.02 336.03 C 346.32 335.95 323.63 336.05 300.94 335.98 C 294.92 336.39 288.95 331.93 288.22 325.85 C 287.12 319.89 291.33 313.53 297.30 312.40 Z" />
<path fill="#70281e" opacity="1.00" d=" M 291.18 394.13 C 297.72 375.84 315.26 362.06 334.64 360.32 C 337.51 361.50 340.36 362.73 343.27 363.84 C 359.43 370.07 371.80 385.06 375.00 402.06 C 376.26 408.29 376.02 414.68 376.01 421.00 C 375.98 429.99 376.03 438.99 375.98 447.98 C 346.64 448.00 317.31 448.02 287.98 447.97 C 288.01 442.66 287.98 437.34 287.98 432.03 C 288.36 419.39 286.56 406.24 291.18 394.13 Z" />
</g>
<g id="#d4d4d6ff">
<path fill="#d4d4d6" opacity="1.00" d=" M 131.38 328.37 C 135.00 325.90 139.68 325.85 143.81 326.83 C 148.96 329.58 152.76 334.10 156.84 338.15 C 170.51 351.82 184.18 365.48 197.85 379.15 C 201.90 383.23 206.42 387.04 209.15 392.21 C 210.13 396.33 209.91 400.94 207.55 404.58 C 204.25 410.02 197.10 412.76 191.04 410.73 C 185.67 408.59 181.91 404.04 177.92 400.08 C 164.10 386.24 150.26 372.40 136.42 358.57 C 132.46 354.58 128.07 350.83 125.31 345.84 C 123.17 339.48 125.46 331.83 131.38 328.37 Z" />
</g>
<g id="#541e16ff">
<path fill="#541e16" opacity="1.00" d=" M 334.64 360.32 C 345.00 359.10 355.66 361.18 364.81 366.18 C 380.69 374.64 391.59 391.89 391.96 409.94 C 392.09 417.30 391.94 424.67 392.02 432.03 C 392.01 437.35 391.99 442.66 392.03 447.98 C 386.68 448.00 381.33 448.00 375.98 447.98 C 376.03 438.99 375.98 429.99 376.01 421.00 C 376.02 414.68 376.26 408.29 375.00 402.06 C 371.80 385.06 359.43 370.07 343.27 363.84 C 340.36 362.73 337.51 361.50 334.64 360.32 Z" />
</g>
</svg>
