<?xml version="1.0" encoding="UTF-8" ?>
<!DOCTYPE svg PUBLIC "-//W3C//DTD SVG 1.1//EN" "http://www.w3.org/Graphics/SVG/1.1/DTD/svg11.dtd">
<svg width="1000pt" height="470pt" viewBox="0 0 1000 470" version="1.1" xmlns="http://www.w3.org/2000/svg">
<g id="#ec602cff">
<path fill="#ec602c" opacity="1.00" d=" M 383.99 101.82 C 399.11 68.01 414.34 34.25 429.17 0.31 C 444.14 34.16 459.23 67.96 474.12 101.84 C 489.91 96.43 505.46 90.29 521.48 85.52 C 539.31 78.36 557.36 71.79 575.47 65.38 C 569.37 83.20 562.43 100.71 556.45 118.57 C 551.08 134.03 545.40 149.38 540.42 164.97 C 547.37 169.86 554.37 174.68 561.43 179.39 C 544.56 177.50 527.63 176.18 510.73 174.56 C 518.73 152.14 526.55 129.63 533.82 106.95 C 509.33 114.87 485.23 123.95 461.05 132.78 C 451.28 110.09 441.27 87.50 431.14 64.97 C 430.64 63.92 429.93 63.03 429.01 62.32 C 418.12 85.70 407.71 109.31 397.23 132.87 C 376.99 125.22 356.58 118.07 336.21 110.81 C 332.48 109.47 328.77 108.06 324.94 107.06 C 329.01 121.58 334.23 135.76 339.00 150.06 C 342.30 158.32 344.42 166.97 347.57 175.28 C 327.63 176.68 307.72 178.38 287.75 179.31 C 295.49 175.20 303.26 171.15 311.18 167.38 C 313.47 166.30 315.68 165.03 317.68 163.48 C 306.26 130.83 294.74 98.19 283.28 65.55 C 302.29 72.02 321.00 79.37 339.97 85.99 C 354.64 91.26 369.31 96.54 383.99 101.82 Z" />
<path fill="#ec602c" opacity="1.00" d=" M 9.21 192.04 C 20.90 168.98 46.31 154.17 72.02 154.23 C 87.96 153.36 104.49 156.91 117.56 166.37 C 125.48 172.17 132.15 179.80 136.33 188.72 C 126.10 195.16 116.02 201.84 105.97 208.55 C 101.18 200.99 94.56 193.90 85.62 191.57 C 74.55 188.55 61.43 189.65 52.50 197.46 C 46.00 202.88 42.18 210.94 40.77 219.17 C 38.87 230.24 39.31 241.92 43.25 252.51 C 46.97 262.77 56.22 270.58 66.85 272.87 C 78.46 275.25 90.78 273.66 101.56 268.79 C 101.56 263.64 101.60 258.48 101.63 253.33 C 93.00 253.77 84.34 253.53 75.70 253.49 C 75.66 242.85 75.71 232.21 75.67 221.57 C 96.18 221.68 116.68 221.98 137.18 221.56 C 137.31 245.35 137.36 269.13 137.26 292.92 C 118.78 304.64 96.86 310.38 75.04 310.22 C 59.16 309.58 42.85 305.79 29.89 296.17 C 13.64 284.65 3.60 265.65 1.25 246.06 C -1.07 227.84 0.51 208.50 9.21 192.04 Z" />
<path fill="#ec602c" opacity="1.00" d=" M 367.81 156.30 C 380.02 156.51 392.23 155.91 404.44 156.19 C 404.70 173.78 404.07 191.40 404.56 208.97 C 410.96 203.15 418.49 198.09 427.21 196.74 C 436.95 195.38 447.63 196.36 455.84 202.24 C 463.13 207.50 467.25 216.23 468.24 225.03 C 468.87 231.00 468.63 237.01 468.70 243.01 C 468.60 264.39 468.83 285.78 468.55 307.17 C 456.42 307.12 444.28 307.16 432.15 307.23 C 432.21 289.80 432.13 272.36 432.12 254.93 C 432.09 249.27 432.33 243.57 431.50 237.95 C 430.75 233.78 428.01 229.50 423.59 228.64 C 414.05 226.62 404.75 235.61 404.66 244.97 C 404.62 265.71 404.59 286.45 404.61 307.19 C 392.46 307.21 380.32 307.07 368.18 307.24 C 367.57 297.51 367.99 287.75 367.85 278.01 C 367.93 237.43 367.89 196.87 367.81 156.30 Z" />
<path fill="#ec602c" opacity="1.00" d=" M 951.14 157.37 C 963.99 157.47 976.85 157.31 989.70 157.31 C 989.89 175.54 990.38 193.85 987.98 211.97 C 986.57 227.37 985.16 242.77 984.14 258.20 C 975.21 258.20 966.29 258.13 957.36 258.24 C 956.04 238.60 953.75 219.05 951.80 199.47 C 950.93 185.46 951.32 171.41 951.14 157.37 Z" />
<path fill="#ec602c" opacity="1.00" d=" M 596.61 157.48 C 612.09 157.51 627.57 157.59 643.05 157.53 C 653.77 157.62 664.63 156.95 675.16 159.43 C 686.43 161.75 697.35 167.30 704.55 176.48 C 714.87 189.07 716.80 206.56 714.06 222.14 C 711.62 233.21 706.38 244.25 697.16 251.23 C 690.20 256.74 681.55 259.72 672.89 261.25 C 660.24 263.38 647.36 262.24 634.60 262.54 C 634.68 277.42 634.63 292.30 634.61 307.18 C 621.99 307.14 609.38 307.06 596.77 307.18 C 596.48 257.28 596.66 207.38 596.61 157.48 M 634.49 192.59 C 634.68 204.66 634.68 216.73 634.62 228.80 C 642.88 228.68 651.14 228.98 659.39 228.60 C 665.27 228.45 671.16 225.51 674.26 220.42 C 676.65 215.54 676.92 209.76 675.73 204.52 C 674.46 199.06 669.75 194.89 664.32 193.81 C 654.53 191.62 644.41 193.16 634.49 192.59 Z" />
<path fill="#ec602c" opacity="1.00" d=" M 291.93 200.84 C 303.21 196.01 315.89 195.03 327.91 197.16 C 340.56 199.43 352.30 206.84 359.45 217.57 C 351.91 224.71 344.05 231.49 336.44 238.56 C 331.56 233.36 325.24 228.99 317.93 228.46 C 310.99 227.73 303.85 231.28 300.32 237.31 C 295.29 245.83 294.96 256.87 298.99 265.85 C 301.34 271.30 306.26 275.70 312.14 276.89 C 321.85 278.91 332.11 274.85 338.62 267.54 C 345.69 275.24 353.26 282.47 360.71 289.80 C 355.00 296.16 348.37 301.92 340.57 305.57 C 325.54 312.36 307.73 312.50 292.47 306.33 C 278.26 300.62 267.24 288.09 262.55 273.60 C 258.37 261.99 257.75 249.21 260.92 237.28 C 264.74 221.19 276.13 206.53 291.93 200.84 Z" />
<path fill="#ec602c" opacity="1.00" d=" M 759.50 196.77 C 776.40 194.15 794.84 198.65 807.21 210.83 C 818.94 221.85 824.08 238.24 824.27 254.00 C 823.78 268.22 819.82 283.15 809.63 293.58 C 799.31 305.24 783.32 310.60 768.03 310.34 C 754.28 310.11 740.01 305.85 730.00 296.06 C 706.50 274.28 707.04 232.90 729.92 210.86 C 737.82 202.90 748.77 199.07 759.50 196.77 M 763.61 228.87 C 759.55 230.23 755.70 232.74 753.53 236.51 C 749.28 243.09 748.73 251.30 749.65 258.88 C 750.77 265.33 753.90 271.87 759.60 275.45 C 767.40 280.35 778.96 277.62 783.53 269.55 C 789.53 259.66 789.56 246.31 783.64 236.37 C 779.59 229.82 770.94 226.80 763.61 228.87 Z" />
<path fill="#ec602c" opacity="1.00" d=" M 886.74 198.78 C 896.45 195.14 907.75 195.27 917.22 199.61 C 924.15 203.04 929.71 209.20 932.35 216.49 C 935.03 223.32 935.41 230.78 935.28 238.04 C 935.28 261.11 935.21 284.17 935.31 307.24 C 923.09 307.20 910.88 307.17 898.66 307.15 C 898.64 286.44 898.54 265.73 898.62 245.01 C 898.59 240.64 898.78 235.73 895.72 232.21 C 891.78 227.12 883.90 227.38 879.03 230.94 C 874.89 233.93 871.31 238.62 871.42 243.94 C 871.41 265.03 871.31 286.11 871.39 307.20 C 859.17 307.23 846.95 307.17 834.73 307.20 C 834.73 271.24 834.74 235.28 834.71 199.33 C 845.91 199.13 857.12 199.25 868.33 199.19 C 868.30 202.98 868.44 206.79 868.85 210.57 C 874.48 206.17 879.89 201.24 886.74 198.78 Z" />
<path fill="#ec602c" opacity="1.00" d=" M 154.83 208.10 C 170.11 200.78 186.89 195.73 203.98 196.45 C 215.50 196.48 227.55 199.81 236.12 207.81 C 244.48 215.78 247.21 227.79 247.34 238.95 C 247.35 261.70 247.34 284.45 247.48 307.20 C 236.11 307.16 224.75 307.06 213.38 307.24 C 213.27 304.10 213.25 300.96 213.20 297.83 C 200.18 310.52 178.76 314.28 162.73 305.22 C 154.28 300.60 149.34 291.38 148.11 282.05 C 146.07 271.03 150.21 259.01 158.93 251.89 C 166.22 245.70 175.91 243.97 184.90 241.67 C 193.82 239.47 203.05 239.16 212.04 237.51 C 211.90 232.10 208.17 227.26 202.79 226.18 C 189.72 223.54 176.40 227.90 164.77 233.70 C 161.68 225.08 158.15 216.63 154.83 208.10 M 194.69 263.46 C 190.47 264.72 185.90 266.71 183.93 270.94 C 181.58 275.77 183.90 282.19 189.04 284.03 C 195.15 285.74 202.62 285.03 207.05 280.02 C 212.19 274.80 211.51 266.90 211.54 260.17 C 205.84 260.81 200.22 262.00 194.69 263.46 Z" />
<path fill="#ec602c" opacity="1.00" d=" M 486.65 208.54 C 503.75 199.37 523.57 194.57 542.97 196.96 C 552.02 198.48 561.50 201.21 568.10 207.95 C 575.25 215.04 578.02 225.37 578.53 235.17 C 578.82 259.19 578.47 283.23 578.84 307.26 C 567.66 307.24 556.48 307.10 545.31 307.30 C 545.24 304.12 545.22 300.94 545.23 297.76 C 541.45 300.94 537.72 304.32 533.16 306.34 C 522.85 310.94 510.84 311.46 500.14 307.90 C 490.61 304.79 482.96 296.54 480.51 286.83 C 477.93 276.97 479.09 265.74 485.38 257.47 C 491.50 249.38 501.31 245.07 511.05 243.22 C 521.64 239.62 532.97 239.65 543.86 237.54 C 543.22 234.01 542.29 230.05 538.90 228.16 C 531.88 224.00 523.19 225.40 515.59 226.88 C 508.96 228.10 502.73 230.77 496.73 233.78 C 493.43 225.34 490.36 216.81 486.65 208.54 M 525.68 263.53 C 521.27 264.71 516.89 267.58 515.32 272.04 C 513.54 276.72 516.14 282.49 520.91 284.15 C 527.71 285.97 536.00 284.32 540.32 278.38 C 543.91 273.11 542.94 266.35 543.34 260.32 C 537.42 261.21 531.47 262.01 525.68 263.53 Z" />
<path fill="#ec602c" opacity="1.00" d=" M 965.64 266.83 C 970.65 265.84 976.05 266.08 980.77 268.19 C 988.74 271.70 994.20 280.35 993.74 289.08 C 993.65 297.61 987.67 305.55 979.76 308.52 C 972.26 311.61 963.19 310.21 956.97 305.04 C 949.53 298.39 947.30 286.60 951.80 277.69 C 954.45 272.23 959.63 267.97 965.64 266.83 Z" />
<path fill="#ec602c" opacity="1.00" d=" M 887.49 323.73 C 897.13 320.96 907.90 328.84 907.90 338.91 C 908.80 348.27 900.42 357.47 890.91 356.80 C 881.01 356.81 873.95 346.23 875.61 336.94 C 876.41 330.66 881.46 325.39 887.49 323.73 M 887.41 331.65 C 884.56 333.38 882.40 336.54 882.49 339.96 C 882.33 345.39 887.71 350.32 893.17 349.21 C 898.05 348.78 901.33 343.59 900.74 338.94 C 900.63 332.71 892.74 328.20 887.41 331.65 Z" />
<path fill="#ec602c" opacity="1.00" d=" M 523.53 327.68 C 531.88 327.30 540.25 327.45 548.61 327.35 C 557.30 353.08 566.10 378.78 574.60 404.58 C 547.21 394.12 519.62 384.23 492.19 373.89 C 486.31 371.67 480.24 369.89 474.54 367.21 C 468.01 380.68 462.33 394.58 456.23 408.26 C 446.93 428.68 438.44 449.46 429.08 469.85 C 421.37 451.14 412.93 432.74 404.94 414.15 C 398.04 398.51 391.42 382.74 384.14 367.28 C 350.56 379.53 317.20 392.39 283.56 404.50 C 292.41 378.95 301.41 353.44 309.69 327.70 C 318.35 327.88 327.02 327.76 335.68 327.62 C 332.06 339.38 327.77 350.93 324.57 362.82 C 349.23 355.10 373.01 344.83 397.29 336.03 C 407.96 360.09 418.15 384.37 429.08 408.32 C 440.43 384.53 450.52 360.17 461.10 336.04 C 470.73 339.16 479.93 343.48 489.51 346.78 C 504.55 352.46 519.53 358.31 534.65 363.79 C 531.37 351.63 527.06 339.77 523.53 327.68 Z" />
<path fill="#ec602c" opacity="1.00" d=" M 632.51 332.63 C 637.49 332.67 642.48 332.73 647.47 332.61 C 645.42 340.07 643.87 347.66 642.14 355.21 C 653.60 355.37 665.07 355.31 676.53 355.30 C 672.56 373.50 669.39 391.88 666.36 410.25 C 661.08 410.22 655.80 410.18 650.52 410.25 C 653.16 396.79 656.05 383.37 658.27 369.83 C 651.50 369.76 644.74 369.83 637.99 369.83 C 635.01 380.95 631.64 391.96 629.04 403.18 C 624.12 403.35 619.21 403.27 614.29 403.20 C 617.26 392.24 619.83 381.18 622.94 370.26 C 618.56 369.67 614.13 369.88 609.73 369.88 C 609.80 365.04 609.77 360.20 609.74 355.37 C 615.48 355.35 621.23 355.47 626.98 355.28 C 628.72 347.71 630.63 340.17 632.51 332.63 Z" />
<path fill="#ec602c" opacity="1.00" d=" M 860.66 332.19 C 864.98 332.18 869.31 332.28 873.61 331.79 C 871.62 337.25 871.58 343.58 874.42 348.75 C 875.52 350.76 875.96 353.01 876.42 355.23 C 880.24 354.60 882.81 357.94 886.27 358.82 C 890.94 360.17 896.14 359.75 900.50 357.53 C 900.50 361.56 900.51 365.60 900.53 369.64 C 892.42 369.67 884.32 369.75 876.22 369.73 C 875.87 372.13 875.77 374.57 875.84 377.01 C 876.00 388.10 875.51 399.20 876.24 410.27 C 871.07 410.27 865.91 410.25 860.75 410.25 C 860.76 396.76 860.85 383.27 860.66 369.78 C 851.82 369.80 842.98 369.73 834.14 369.69 C 834.24 364.91 834.21 360.14 834.21 355.36 C 843.03 355.36 851.85 355.25 860.68 355.30 C 860.63 347.60 860.75 339.89 860.66 332.19 Z" />
<path fill="#ec602c" opacity="1.00" d=" M 649.84 332.60 C 653.65 332.65 657.46 332.64 661.28 332.51 C 661.49 338.42 661.22 344.33 661.21 350.24 C 657.42 350.22 653.64 350.26 649.85 350.26 C 649.81 344.37 649.75 338.49 649.84 332.60 Z" />
<path fill="#ec602c" opacity="1.00" d=" M 665.58 332.51 C 669.55 332.55 673.52 332.56 677.50 332.46 C 677.34 338.39 677.33 344.32 677.36 350.25 C 673.47 350.22 669.57 350.23 665.68 350.24 C 665.66 344.33 665.68 338.42 665.58 332.51 Z" />
<path fill="#ec602c" opacity="1.00" d=" M 688.75 332.94 C 697.52 334.22 706.19 336.13 714.97 337.40 C 716.14 337.88 718.85 337.23 718.79 339.14 C 718.96 343.23 718.75 347.32 718.87 351.42 C 709.15 349.24 699.21 348.26 689.47 346.21 L 688.90 345.62 C 688.77 341.39 688.98 337.16 688.75 332.94 Z" />
<path fill="#ec602c" opacity="1.00" d=" M 920.48 341.37 C 930.53 343.42 940.76 344.39 950.84 346.29 C 950.83 351.11 950.64 355.95 950.99 360.78 C 940.72 359.12 930.46 357.38 920.23 355.50 C 920.29 350.79 920.57 346.08 920.48 341.37 Z" />
<path fill="#ec602c" opacity="1.00" d=" M 976.55 349.25 C 982.96 349.17 989.38 349.26 995.81 349.23 C 979.25 369.95 961.82 389.95 944.82 410.29 C 938.05 410.24 931.28 410.33 924.52 410.38 C 932.19 402.05 939.07 393.04 946.62 384.61 C 956.61 372.83 966.74 361.17 976.55 349.25 Z" />
<path fill="#ec602c" opacity="1.00" d=" M 746.07 350.30 C 752.49 350.35 758.92 350.31 765.34 350.20 C 761.88 353.84 758.91 357.89 755.81 361.83 C 742.54 378.07 729.03 394.11 715.69 410.30 C 708.97 410.22 702.24 410.17 695.52 410.30 C 712.62 390.52 729.37 370.42 746.07 350.30 Z" />
<path fill="#ec602c" opacity="1.00" d=" M 688.83 365.17 C 688.86 360.65 688.94 356.13 688.85 351.61 C 698.93 353.49 709.02 355.40 719.17 356.88 C 719.23 361.57 719.18 366.26 719.31 370.95 C 709.19 368.80 698.99 367.06 688.83 365.17 Z" />
<path fill="#ec602c" opacity="1.00" d=" M 770.30 357.20 C 775.53 357.21 780.75 357.14 785.98 357.22 C 787.00 361.83 788.35 366.35 789.66 370.89 C 801.36 370.82 813.06 370.92 824.77 370.77 C 820.88 378.79 817.62 387.09 813.94 395.20 C 809.83 395.18 805.72 395.17 801.62 395.23 C 803.06 392.01 804.26 388.70 805.47 385.40 C 801.18 385.34 796.89 385.17 792.61 385.50 C 794.43 393.77 796.19 402.06 798.24 410.29 C 793.10 410.26 787.96 410.29 782.83 410.30 C 781.11 401.96 779.06 393.70 777.41 385.35 C 772.37 385.28 767.32 385.23 762.29 385.34 C 762.33 380.52 762.25 375.70 762.20 370.89 C 766.06 370.79 769.92 370.80 773.79 370.83 C 772.69 366.27 771.66 361.69 770.30 357.20 Z" />
<path fill="#ec602c" opacity="1.00" d=" M 829.04 410.19 C 831.48 399.72 833.59 389.15 836.49 378.80 C 841.60 378.82 846.70 378.87 851.82 378.75 C 849.30 389.25 846.79 399.74 844.23 410.22 C 839.16 410.18 834.10 410.18 829.04 410.19 Z" />
<path fill="#ec602c" opacity="1.00" d=" M 883.52 378.68 C 888.65 378.74 893.79 378.69 898.93 378.71 C 901.85 389.23 904.72 399.77 907.70 410.28 C 902.29 410.24 896.87 410.22 891.46 410.29 C 888.72 399.78 886.52 389.13 883.52 378.68 Z" />
<path fill="#ec602c" opacity="1.00" d=" M 982.59 387.67 C 988.73 384.61 996.96 388.41 998.85 394.96 C 1001.31 401.22 997.72 409.24 991.06 410.96 C 984.63 413.29 977.33 408.68 975.76 402.22 C 973.97 396.55 977.10 389.92 982.59 387.67 Z" />
</g>
</svg>
