<svg width="320" height="156" viewBox="0 0 320 156" fill="none" xmlns="http://www.w3.org/2000/svg">
<mask id="path-1-inside-1_6623_30803" fill="white">
<path d="M275 12C286.598 12.0001 296 21.4021 296 33V124C296 135.598 286.598 145 275 145H94C80.7452 145 70 134.255 70 121V106.229C69.9438 106.208 69.8881 106.186 69.832 106.165L65 96.5L53.0811 68.1934C56.1314 60.6023 62.2991 54.5995 70 51.7705V33C70 21.402 79.402 12 91 12H275Z"/>
</mask>
<path d="M275 12C286.598 12.0001 296 21.4021 296 33V124C296 135.598 286.598 145 275 145H94C80.7452 145 70 134.255 70 121V106.229C69.9438 106.208 69.8881 106.186 69.832 106.165L65 96.5L53.0811 68.1934C56.1314 60.6023 62.2991 54.5995 70 51.7705V33C70 21.402 79.402 12 91 12H275Z" fill="url(#paint0_linear_6623_30803)"/>
<path d="M275 12L275 11H275V12ZM70 121H69V121H70ZM70 106.229H71V105.531L70.3449 105.29L70 106.229ZM69.832 106.165L68.9376 106.612L69.1133 106.964L69.4813 107.102L69.832 106.165ZM65 96.5L64.0784 96.8881L64.091 96.9181L64.1056 96.9472L65 96.5ZM53.0811 68.1934L52.1532 67.8205L51.9998 68.2023L52.1594 68.5814L53.0811 68.1934ZM70 51.7705L70.3448 52.7092L71 52.4685V51.7705H70ZM275 12V11H269.889V12V13H275V12ZM259.667 12V11H249.444V12V13H259.667V12ZM239.222 12V11H229V12V13H239.222V12ZM218.778 12V11H208.556V12V13H218.778V12ZM198.333 12V11H188.111V12V13H198.333V12ZM177.889 12V11H167.667V12V13H177.889V12ZM157.444 12V11H147.222V12V13H157.444V12ZM137 12V11H126.778V12V13H137V12ZM116.556 12V11H106.333V12V13H116.556V12ZM96.1111 12V11H91V12V13H96.1111V12ZM91 12V11C89.532 11 88.0966 11.1439 86.7075 11.4187L86.9016 12.3997L87.0957 13.3807C88.3576 13.131 89.663 13 91 13V12ZM79.3321 15.5371L78.7757 14.7062C76.377 16.312 74.312 18.377 72.7062 20.7757L73.5371 21.3321L74.3681 21.8884C75.8285 19.7069 77.7069 17.8285 79.8884 16.3681L79.3321 15.5371ZM70.3997 28.9016L69.4187 28.7075C69.1439 30.0966 69 31.532 69 33H70H71C71 31.663 71.1311 30.3576 71.3807 29.0957L70.3997 28.9016ZM70 33H69V37.6926H70H71V33H70ZM70 47.0779H69V51.7705H70H71V47.0779H70ZM70 51.7705L69.6552 50.8318C67.6737 51.5598 65.7906 52.4906 64.031 53.5991L64.564 54.4452L65.0971 55.2913C66.7394 54.2567 68.4965 53.3882 70.3448 52.7092L70 51.7705ZM55.9171 62.8397L55.0872 62.2818C53.926 64.0088 52.9395 65.8635 52.1532 67.8205L53.0811 68.1934L54.0089 68.5662C54.7425 66.7406 55.6631 65.0098 56.7469 63.3977L55.9171 62.8397ZM53.0811 68.1934L52.1594 68.5814L53.6493 72.1198L54.5709 71.7317L55.4926 71.3436L54.0027 67.8053L53.0811 68.1934ZM57.5507 78.8083L56.629 79.1964L59.6088 86.2731L60.5304 85.885L61.452 85.4969L58.4723 78.4203L57.5507 78.8083ZM63.5101 92.9617L62.5885 93.3497L64.0784 96.8881L65 96.5L65.9216 96.1119L64.4318 92.5736L63.5101 92.9617ZM65 96.5L64.1056 96.9472L65.3136 99.3634L66.208 98.9163L67.1025 98.4691L65.8944 96.0528L65 96.5ZM68.624 103.749L67.7296 104.196L68.9376 106.612L69.832 106.165L70.7265 105.718L69.5185 103.302L68.624 103.749ZM69.832 106.165L69.4813 107.102C69.5111 107.113 69.6024 107.148 69.6551 107.167L70 106.229L70.3449 105.29C70.2852 105.268 70.2651 105.259 70.1827 105.229L69.832 106.165ZM70 106.229H69V109.921H70H71V106.229H70ZM70 117.307H69V121H70H71V117.307H70ZM70 121H69C69 122.668 69.1636 124.299 69.4758 125.878L70.4568 125.684L71.4378 125.49C71.1507 124.038 71 122.537 71 121H70ZM74.0424 134.335L73.2115 134.891C75.0364 137.617 77.3831 139.964 80.1089 141.789L80.6652 140.958L81.2215 140.127C78.7129 138.447 76.5529 136.287 74.8734 133.778L74.0424 134.335ZM89.3161 144.543L89.122 145.524C90.7005 145.836 92.3316 146 94 146V145V144C92.4627 144 90.9615 143.849 89.5102 143.562L89.3161 144.543ZM94 145V146H99.0278V145V144H94V145ZM109.083 145V146H119.139V145V144H109.083V145ZM129.194 145V146H139.25V145V144H129.194V145ZM149.306 145V146H159.361V145V144H149.306V145ZM169.417 145V146H179.472V145V144H169.417V145ZM189.528 145V146H199.583V145V144H189.528V145ZM209.639 145V146H219.694V145V144H209.639V145ZM229.75 145V146H239.806V145V144H229.75V145ZM249.861 145V146H259.917V145V144H249.861V145ZM269.972 145V146H275V145V144H269.972V145ZM275 145V146C276.468 146 277.903 145.856 279.292 145.581L279.098 144.6L278.904 143.619C277.642 143.869 276.337 144 275 144V145ZM286.668 141.463L287.224 142.294C289.623 140.688 291.688 138.623 293.294 136.224L292.463 135.668L291.632 135.112C290.171 137.293 288.293 139.171 286.112 140.632L286.668 141.463ZM295.6 128.098L296.581 128.292C296.856 126.903 297 125.468 297 124H296H295C295 125.337 294.869 126.642 294.619 127.904L295.6 128.098ZM296 124H297V119.45H296H295V124H296ZM296 110.35H297V101.25H296H295V110.35H296ZM296 92.15H297V83.05H296H295V92.15H296ZM296 73.95H297V64.85H296H295V73.95H296ZM296 55.75H297V46.65H296H295V55.75H296ZM296 37.55H297V33H296H295V37.55H296ZM296 33H297C297 31.532 296.856 30.0966 296.581 28.7075L295.6 28.9016L294.619 29.0957C294.869 30.3576 295 31.663 295 33H296ZM292.463 21.3321L293.294 20.7758C291.688 18.3771 289.623 16.3121 287.224 14.7062L286.668 15.5372L286.112 16.3682C288.293 17.8286 290.171 19.707 291.632 21.8884L292.463 21.3321ZM279.098 12.3998L279.292 11.4188C277.903 11.144 276.468 11 275 11L275 12L275 13C276.337 13 277.642 13.1311 278.904 13.3807L279.098 12.3998ZM275 12L275 10H275V12ZM70 121H68V121H70ZM70 106.229H72V104.833L70.6897 104.351L70 106.229ZM69.832 106.165L68.0431 107.059L68.3946 107.762L69.1306 108.038L69.832 106.165ZM65 96.5L63.1567 97.2761L63.182 97.3361L63.2111 97.3944L65 96.5ZM53.0811 68.1934L51.2253 67.4476L50.9185 68.2111L51.2378 68.9695L53.0811 68.1934ZM70 51.7705L70.6897 53.6478L72 53.1665V51.7705H70ZM275 12V10H269.889V12V14H275V12ZM259.667 12V10H249.444V12V14H259.667V12ZM239.222 12V10H229V12V14H239.222V12ZM218.778 12V10H208.556V12V14H218.778V12ZM198.333 12V10H188.111V12V14H198.333V12ZM177.889 12V10H167.667V12V14H177.889V12ZM157.444 12V10H147.222V12V14H157.444V12ZM137 12V10H126.778V12V14H137V12ZM116.556 12V10H106.333V12V14H116.556V12ZM96.1111 12V10H91V12V14H96.1111V12ZM91 12V10C89.4665 10 87.9661 10.1504 86.5135 10.4377L86.9016 12.3997L87.2897 14.3617C88.4881 14.1246 89.7285 14 91 14V12ZM79.3321 15.5371L78.2194 13.8752C75.7121 15.5538 73.5538 17.7121 71.8752 20.2194L73.5371 21.3321L75.1991 22.4447C76.5868 20.3719 78.3719 18.5868 80.4447 17.1991L79.3321 15.5371ZM70.3997 28.9016L68.4377 28.5135C68.1504 29.9661 68 31.4665 68 33H70H72C72 31.7285 72.1246 30.4881 72.3617 29.2897L70.3997 28.9016ZM70 33H68V37.6926H70H72V33H70ZM70 47.0779H68V51.7705H70H72V47.0779H70ZM70 51.7705L69.3103 49.8932C67.2623 50.6455 65.3162 51.6076 63.498 52.753L64.564 54.4452L65.6301 56.1374C67.2138 55.1397 68.9079 54.3024 70.6897 53.6478L70 51.7705ZM55.9171 62.8397L54.2573 61.7238C53.0575 63.5084 52.038 65.425 51.2253 67.4476L53.0811 68.1934L54.9368 68.9391C55.644 67.1791 56.5316 65.5103 57.5768 63.9556L55.9171 62.8397ZM53.0811 68.1934L51.2378 68.9695L52.7277 72.5078L54.5709 71.7317L56.4142 70.9556L54.9243 67.4172L53.0811 68.1934ZM57.5507 78.8083L55.7074 79.5845L58.6871 86.6611L60.5304 85.885L62.3737 85.1089L59.3939 78.0322L57.5507 78.8083ZM63.5101 92.9617L61.6669 93.7378L63.1567 97.2761L65 96.5L66.8433 95.7239L65.3534 92.1855L63.5101 92.9617ZM65 96.5L63.2111 97.3944L64.4191 99.8106L66.208 98.9163L67.9969 98.0219L66.7889 95.6056L65 96.5ZM68.624 103.749L66.8351 104.643L68.0431 107.059L69.832 106.165L71.6209 105.271L70.4129 102.854L68.624 103.749ZM69.832 106.165L69.1306 108.038C69.1341 108.039 69.2609 108.088 69.3103 108.106L70 106.229L70.6897 104.351C70.6267 104.328 70.6421 104.333 70.5335 104.292L69.832 106.165ZM70 106.229H68V109.921H70H72V106.229H70ZM70 117.307H68V121H70H72V117.307H70ZM70 121H68C68 122.734 68.17 124.43 68.4948 126.072L70.4568 125.684L72.4188 125.296C72.1443 123.908 72 122.472 72 121H70ZM74.0424 134.335L72.3805 135.447C74.2781 138.282 76.7181 140.722 79.5526 142.62L80.6652 140.958L81.7779 139.296C79.3779 137.689 77.3111 135.622 75.7044 133.222L74.0424 134.335ZM89.3161 144.543L88.928 146.505C90.57 146.83 92.2661 147 94 147V145V143C92.5282 143 91.092 142.856 89.7043 142.581L89.3161 144.543ZM94 145V147H99.0278V145V143H94V145ZM109.083 145V147H119.139V145V143H109.083V145ZM129.194 145V147H139.25V145V143H129.194V145ZM149.306 145V147H159.361V145V143H149.306V145ZM169.417 145V147H179.472V145V143H169.417V145ZM189.528 145V147H199.583V145V143H189.528V145ZM209.639 145V147H219.694V145V143H209.639V145ZM229.75 145V147H239.806V145V143H229.75V145ZM249.861 145V147H259.917V145V143H249.861V145ZM269.972 145V147H275V145V143H269.972V145ZM275 145V147C276.534 147 278.034 146.85 279.487 146.562L279.098 144.6L278.71 142.638C277.512 142.875 276.271 143 275 143V145ZM286.668 141.463L287.781 143.125C290.288 141.446 292.446 139.288 294.125 136.781L292.463 135.668L290.801 134.555C289.413 136.628 287.628 138.413 285.555 139.801L286.668 141.463ZM295.6 128.098L297.562 128.487C297.85 127.034 298 125.534 298 124H296H294C294 125.271 293.875 126.512 293.638 127.71L295.6 128.098ZM296 124H298V119.45H296H294V124H296ZM296 110.35H298V101.25H296H294V110.35H296ZM296 92.15H298V83.05H296H294V92.15H296ZM296 73.95H298V64.85H296H294V73.95H296ZM296 55.75H298V46.65H296H294V55.75H296ZM296 37.55H298V33H296H294V37.55H296ZM296 33H298C298 31.4665 297.85 29.9661 297.562 28.5135L295.6 28.9016L293.638 29.2898C293.875 30.4881 294 31.7285 294 33H296ZM292.463 21.3321L294.125 20.2195C292.446 17.7122 290.288 15.5539 287.781 13.8753L286.668 15.5372L285.555 17.1991C287.628 18.5869 289.413 20.3719 290.801 22.4448L292.463 21.3321ZM279.098 12.3998L279.487 10.4378C278.034 10.1504 276.534 10 275 10L275 12L275 14C276.271 14 277.512 14.1246 278.71 14.3617L279.098 12.3998Z" fill="white" fill-opacity="0.26" mask="url(#path-1-inside-1_6623_30803)"/>
<path d="M112.257 89.2687C110.144 89.2687 108.344 88.8746 106.857 88.0865C105.388 87.2805 104.269 86.1521 103.499 84.7013C102.746 83.2505 102.37 81.549 102.37 79.5967C102.37 77.5906 102.764 75.8532 103.552 74.3845C104.358 72.9158 105.505 71.7874 106.991 70.9993C108.496 70.1933 110.296 69.7903 112.391 69.7903C113.359 69.7903 114.326 69.8978 115.293 70.1127C116.26 70.3277 117.183 70.7038 118.06 71.2411C118.436 71.4202 118.696 71.68 118.839 72.0203C118.983 72.3427 119.028 72.683 118.974 73.0412C118.92 73.3994 118.777 73.7129 118.544 73.9815C118.329 74.2502 118.051 74.4383 117.711 74.5457C117.371 74.6353 116.986 74.5816 116.556 74.3845C115.965 74.0263 115.32 73.7576 114.621 73.5785C113.941 73.3994 113.197 73.3099 112.391 73.3099C110.475 73.3099 109.033 73.8472 108.066 74.9219C107.117 75.9965 106.642 77.5548 106.642 79.5967C106.642 81.6385 107.135 83.1878 108.12 84.2446C109.105 85.2834 110.565 85.8029 112.499 85.8029C113.789 85.8029 115.132 85.5611 116.529 85.0775C116.529 85.0775 116.484 85.167 116.395 85.3461C116.323 85.5073 116.233 85.7044 116.126 85.9372C116.036 86.1521 115.947 86.3492 115.857 86.5283C115.786 86.6895 115.75 86.7701 115.75 86.7701C115.75 86.7701 115.75 86.6447 115.75 86.3939C115.75 86.1253 115.75 85.7939 115.75 85.3999C115.75 85.0058 115.75 84.5849 115.75 84.1371C115.75 83.6894 115.75 83.2684 115.75 82.8744C115.75 82.4804 115.75 82.158 115.75 81.9072C115.75 81.6385 115.75 81.5042 115.75 81.5042C115.75 81.5042 115.66 81.5042 115.481 81.5042C115.32 81.5042 115.114 81.5042 114.863 81.5042C114.63 81.5042 114.389 81.5042 114.138 81.5042C113.887 81.5042 113.672 81.5042 113.493 81.5042C113.332 81.5042 113.251 81.5042 113.251 81.5042C112.177 81.5042 111.639 81.0116 111.639 80.0265C111.639 79.0593 112.177 78.5757 113.251 78.5757C113.251 78.5757 113.394 78.5757 113.681 78.5757C113.968 78.5757 114.317 78.5757 114.729 78.5757C115.159 78.5757 115.58 78.5757 115.992 78.5757C116.421 78.5757 116.78 78.5757 117.066 78.5757C117.353 78.5757 117.496 78.5757 117.496 78.5757C118.589 78.5757 119.135 79.122 119.135 80.2146C119.135 80.2146 119.135 80.3668 119.135 80.6713C119.135 80.9758 119.135 81.3699 119.135 81.8535C119.135 82.3192 119.135 82.8207 119.135 83.358C119.135 83.8953 119.135 84.4058 119.135 84.8894C119.135 85.3551 119.135 85.7402 119.135 86.0447C119.135 86.3312 119.135 86.4745 119.135 86.4745C119.135 86.9402 119.045 87.3343 118.866 87.6567C118.687 87.9612 118.392 88.185 117.98 88.3283C117.174 88.6149 116.26 88.8388 115.239 89C114.236 89.1791 113.242 89.2687 112.257 89.2687ZM123.305 89.2149C122.589 89.2149 122.069 88.9731 121.747 88.4895C121.424 88.0059 121.433 87.4059 121.774 86.6895C121.774 86.6895 121.872 86.4745 122.069 86.0447C122.266 85.6148 122.526 85.0416 122.848 84.3252C123.171 83.6088 123.538 82.8028 123.95 81.9072C124.362 80.9937 124.783 80.0624 125.213 79.1131C125.66 78.1459 126.09 77.2145 126.502 76.3189C126.914 75.4234 127.281 74.6174 127.604 73.9009C127.944 73.1666 128.204 72.5934 128.383 72.1815C128.58 71.7516 128.678 71.5367 128.678 71.5367C128.947 70.9456 129.278 70.5157 129.672 70.2471C130.084 69.9784 130.541 69.8441 131.043 69.8441C131.544 69.8441 131.992 69.9784 132.386 70.2471C132.78 70.5157 133.111 70.9456 133.38 71.5367C133.38 71.5367 133.47 71.7516 133.649 72.1815C133.846 72.5934 134.105 73.1666 134.428 73.9009C134.768 74.6174 135.144 75.4234 135.556 76.3189C135.968 77.2145 136.389 78.1459 136.819 79.1131C137.249 80.0624 137.67 80.9937 138.082 81.9072C138.494 82.8028 138.861 83.6088 139.183 84.3252C139.524 85.0416 139.792 85.6148 139.989 86.0447C140.186 86.4745 140.285 86.6895 140.285 86.6895C140.625 87.4238 140.643 88.0328 140.338 88.5164C140.052 88.9821 139.559 89.2149 138.861 89.2149C138.252 89.2149 137.786 89.0806 137.464 88.8119C137.141 88.5433 136.855 88.1044 136.604 87.4955C136.604 87.4955 136.55 87.3701 136.443 87.1193C136.335 86.8686 136.201 86.5551 136.04 86.179C135.879 85.8029 135.717 85.4267 135.556 85.0506C135.395 84.6745 135.261 84.361 135.153 84.1103C135.046 83.8595 134.992 83.7341 134.992 83.7341C134.992 83.7341 135.073 83.7879 135.234 83.8953C135.395 84.0028 135.583 84.1371 135.798 84.2983C136.013 84.4416 136.201 84.576 136.362 84.7013C136.523 84.8088 136.604 84.8625 136.604 84.8625C136.604 84.8625 136.398 84.8625 135.986 84.8625C135.592 84.8625 135.055 84.8625 134.374 84.8625C133.711 84.8625 132.986 84.8625 132.198 84.8625C131.41 84.8625 130.613 84.8625 129.807 84.8625C129.019 84.8625 128.293 84.8625 127.631 84.8625C126.968 84.8625 126.43 84.8625 126.019 84.8625C125.607 84.8625 125.401 84.8625 125.401 84.8625C125.401 84.8625 125.481 84.8088 125.642 84.7013C125.804 84.576 125.992 84.4416 126.207 84.2983C126.439 84.1371 126.636 84.0028 126.798 83.8953C126.977 83.7879 127.066 83.7341 127.066 83.7341C127.066 83.7341 127.013 83.8595 126.905 84.1103C126.798 84.361 126.663 84.6745 126.502 85.0506C126.341 85.4267 126.18 85.8029 126.019 86.179C125.857 86.5551 125.723 86.8686 125.616 87.1193C125.508 87.3701 125.454 87.4955 125.454 87.4955C125.186 88.1044 124.899 88.5433 124.595 88.8119C124.308 89.0806 123.878 89.2149 123.305 89.2149ZM130.989 74.4114C130.989 74.4114 130.926 74.5636 130.801 74.8681C130.675 75.1726 130.505 75.5667 130.29 76.0503C130.093 76.5339 129.869 77.0712 129.619 77.6623C129.368 78.2533 129.117 78.8534 128.866 79.4623C128.616 80.0534 128.383 80.5907 128.168 81.0743C127.971 81.5579 127.81 81.952 127.684 82.2565C127.559 82.561 127.496 82.7132 127.496 82.7132C127.496 82.7132 127.434 82.6236 127.308 82.4445C127.201 82.2654 127.084 82.0953 126.959 81.9341C126.833 81.755 126.771 81.6654 126.771 81.6654C126.771 81.6654 126.977 81.6654 127.389 81.6654C127.801 81.6654 128.329 81.6654 128.974 81.6654C129.619 81.6654 130.299 81.6654 131.016 81.6654C131.75 81.6654 132.431 81.6654 133.058 81.6654C133.702 81.6654 134.231 81.6654 134.643 81.6654C135.055 81.6654 135.261 81.6654 135.261 81.6654C135.261 81.6654 135.198 81.755 135.073 81.9341C134.965 82.0953 134.849 82.2654 134.723 82.4445C134.616 82.6236 134.562 82.7132 134.562 82.7132C134.562 82.7132 134.499 82.561 134.374 82.2565C134.249 81.952 134.079 81.5579 133.864 81.0743C133.649 80.5907 133.416 80.0534 133.165 79.4623C132.932 78.8534 132.681 78.2533 132.413 77.6623C132.162 77.0712 131.929 76.5339 131.714 76.0503C131.517 75.5667 131.356 75.1726 131.231 74.8681C131.105 74.5636 131.043 74.4114 131.043 74.4114C131.043 74.4114 131.034 74.4114 131.016 74.4114C130.998 74.4114 130.989 74.4114 130.989 74.4114ZM152.185 89.2687C150.161 89.2687 148.423 88.8746 146.973 88.0865C145.54 87.2805 144.438 86.1521 143.668 84.7013C142.898 83.2326 142.513 81.5042 142.513 79.5161C142.513 77.5458 142.898 75.8353 143.668 74.3845C144.438 72.9158 145.54 71.7874 146.973 70.9993C148.423 70.1933 150.161 69.7903 152.185 69.7903C153.098 69.7903 154.021 69.9068 154.952 70.1396C155.883 70.3724 156.689 70.7038 157.37 71.1337C157.8 71.3844 158.086 71.6889 158.23 72.0471C158.391 72.3874 158.445 72.7367 158.391 73.0949C158.337 73.4532 158.203 73.7666 157.988 74.0353C157.773 74.3039 157.495 74.492 157.155 74.5995C156.815 74.689 156.448 74.6263 156.054 74.4114C154.925 73.7129 153.689 73.3636 152.346 73.3636C150.519 73.3636 149.14 73.9009 148.209 74.9756C147.295 76.0324 146.838 77.5458 146.838 79.5161C146.838 81.5042 147.295 83.0356 148.209 84.1103C149.14 85.167 150.519 85.6954 152.346 85.6954C152.937 85.6954 153.546 85.6148 154.173 85.4536C154.8 85.2745 155.391 85.0148 155.946 84.6745C156.394 84.4595 156.788 84.3968 157.128 84.4864C157.486 84.558 157.782 84.7282 158.015 84.9969C158.248 85.2655 158.391 85.579 158.445 85.9372C158.516 86.2954 158.481 86.6536 158.337 87.0119C158.194 87.3522 157.916 87.6298 157.504 87.8447C156.842 88.2925 156.036 88.6418 155.086 88.8925C154.137 89.1433 153.17 89.2687 152.185 89.2687ZM163.432 89.2149C162.787 89.2149 162.285 89.0358 161.927 88.6776C161.569 88.3194 161.39 87.8 161.39 87.1193C161.39 87.1193 161.39 86.9044 161.39 86.4745C161.39 86.0447 161.39 85.4715 161.39 84.7551C161.39 84.0386 161.39 83.2326 161.39 82.3371C161.39 81.4236 161.39 80.4922 161.39 79.5429C161.39 78.5757 161.39 77.6444 161.39 76.7488C161.39 75.8353 161.39 75.0204 161.39 74.3039C161.39 73.5875 161.39 73.0143 161.39 72.5845C161.39 72.1546 161.39 71.9397 161.39 71.9397C161.39 71.259 161.569 70.7396 161.927 70.3814C162.285 70.0232 162.796 69.8441 163.458 69.8441C164.103 69.8441 164.605 70.0232 164.963 70.3814C165.321 70.7396 165.5 71.259 165.5 71.9397C165.5 71.9397 165.5 72.083 165.5 72.3695C165.5 72.6382 165.5 72.9964 165.5 73.4442C165.5 73.8741 165.5 74.3398 165.5 74.8413C165.5 75.3249 165.5 75.7816 165.5 76.2115C165.5 76.6413 165.5 76.9996 165.5 77.2861C165.5 77.5548 165.5 77.6891 165.5 77.6891C165.5 77.6891 165.662 77.6891 165.984 77.6891C166.306 77.6891 166.727 77.6891 167.247 77.6891C167.766 77.6891 168.348 77.6891 168.993 77.6891C169.638 77.6891 170.274 77.6891 170.901 77.6891C171.545 77.6891 172.127 77.6891 172.647 77.6891C173.166 77.6891 173.587 77.6891 173.91 77.6891C174.232 77.6891 174.393 77.6891 174.393 77.6891C174.393 77.6891 174.393 77.5548 174.393 77.2861C174.393 76.9996 174.393 76.6413 174.393 76.2115C174.393 75.7816 174.393 75.3249 174.393 74.8413C174.393 74.3398 174.393 73.8741 174.393 73.4442C174.393 72.9964 174.393 72.6382 174.393 72.3695C174.393 72.083 174.393 71.9397 174.393 71.9397C174.393 71.259 174.572 70.7396 174.931 70.3814C175.289 70.0232 175.79 69.8441 176.435 69.8441C177.796 69.8441 178.477 70.5426 178.477 71.9397C178.477 71.9397 178.477 72.1546 178.477 72.5845C178.477 73.0143 178.477 73.5875 178.477 74.3039C178.477 75.0204 178.477 75.8353 178.477 76.7488C178.477 77.6444 178.477 78.5757 178.477 79.5429C178.477 80.4922 178.477 81.4236 178.477 82.3371C178.477 83.2326 178.477 84.0386 178.477 84.7551C178.477 85.4715 178.477 86.0447 178.477 86.4745C178.477 86.9044 178.477 87.1193 178.477 87.1193C178.477 88.5164 177.796 89.2149 176.435 89.2149C175.074 89.2149 174.393 88.5164 174.393 87.1193C174.393 87.1193 174.393 86.976 174.393 86.6895C174.393 86.4029 174.393 86.0357 174.393 85.5879C174.393 85.1222 174.393 84.6297 174.393 84.1103C174.393 83.5908 174.393 83.1072 174.393 82.6595C174.393 82.1938 174.393 81.8176 174.393 81.5311C174.393 81.2445 174.393 81.1012 174.393 81.1012C174.393 81.1012 174.232 81.1012 173.91 81.1012C173.587 81.1012 173.157 81.1012 172.62 81.1012C172.101 81.1012 171.527 81.1012 170.901 81.1012C170.274 81.1012 169.638 81.1012 168.993 81.1012C168.348 81.1012 167.766 81.1012 167.247 81.1012C166.727 81.1012 166.306 81.1012 165.984 81.1012C165.662 81.1012 165.5 81.1012 165.5 81.1012C165.5 81.1012 165.5 81.2445 165.5 81.5311C165.5 81.8176 165.5 82.1938 165.5 82.6595C165.5 83.1072 165.5 83.5908 165.5 84.1103C165.5 84.6297 165.5 85.1222 165.5 85.5879C165.5 86.0357 165.5 86.4029 165.5 86.6895C165.5 86.976 165.5 87.1193 165.5 87.1193C165.5 88.5164 164.811 89.2149 163.432 89.2149ZM182.784 89.2149C182.068 89.2149 181.548 88.9731 181.226 88.4895C180.904 88.0059 180.913 87.4059 181.253 86.6895C181.253 86.6895 181.351 86.4745 181.548 86.0447C181.745 85.6148 182.005 85.0416 182.327 84.3252C182.65 83.6088 183.017 82.8028 183.429 81.9072C183.841 80.9937 184.262 80.0624 184.692 79.1131C185.14 78.1459 185.569 77.2145 185.981 76.3189C186.393 75.4234 186.76 74.6174 187.083 73.9009C187.423 73.1666 187.683 72.5934 187.862 72.1815C188.059 71.7516 188.158 71.5367 188.158 71.5367C188.426 70.9456 188.758 70.5157 189.152 70.2471C189.564 69.9784 190.02 69.8441 190.522 69.8441C191.023 69.8441 191.471 69.9784 191.865 70.2471C192.259 70.5157 192.591 70.9456 192.859 71.5367C192.859 71.5367 192.949 71.7516 193.128 72.1815C193.325 72.5934 193.585 73.1666 193.907 73.9009C194.247 74.6174 194.623 75.4234 195.035 76.3189C195.447 77.2145 195.868 78.1459 196.298 79.1131C196.728 80.0624 197.149 80.9937 197.561 81.9072C197.973 82.8028 198.34 83.6088 198.662 84.3252C199.003 85.0416 199.271 85.6148 199.468 86.0447C199.665 86.4745 199.764 86.6895 199.764 86.6895C200.104 87.4238 200.122 88.0328 199.818 88.5164C199.531 88.9821 199.039 89.2149 198.34 89.2149C197.731 89.2149 197.265 89.0806 196.943 88.8119C196.621 88.5433 196.334 88.1044 196.083 87.4955C196.083 87.4955 196.029 87.3701 195.922 87.1193C195.815 86.8686 195.68 86.5551 195.519 86.179C195.358 85.8029 195.197 85.4267 195.035 85.0506C194.874 84.6745 194.74 84.361 194.632 84.1103C194.525 83.8595 194.471 83.7341 194.471 83.7341C194.471 83.7341 194.552 83.7879 194.713 83.8953C194.874 84.0028 195.062 84.1371 195.277 84.2983C195.492 84.4416 195.68 84.576 195.841 84.7013C196.003 84.8088 196.083 84.8625 196.083 84.8625C196.083 84.8625 195.877 84.8625 195.465 84.8625C195.071 84.8625 194.534 84.8625 193.853 84.8625C193.191 84.8625 192.465 84.8625 191.677 84.8625C190.889 84.8625 190.092 84.8625 189.286 84.8625C188.498 84.8625 187.772 84.8625 187.11 84.8625C186.447 84.8625 185.91 84.8625 185.498 84.8625C185.086 84.8625 184.88 84.8625 184.88 84.8625C184.88 84.8625 184.96 84.8088 185.122 84.7013C185.283 84.576 185.471 84.4416 185.686 84.2983C185.919 84.1371 186.116 84.0028 186.277 83.8953C186.456 83.7879 186.546 83.7341 186.546 83.7341C186.546 83.7341 186.492 83.8595 186.384 84.1103C186.277 84.361 186.143 84.6745 185.981 85.0506C185.82 85.4267 185.659 85.8029 185.498 86.179C185.337 86.5551 185.202 86.8686 185.095 87.1193C184.987 87.3701 184.934 87.4955 184.934 87.4955C184.665 88.1044 184.378 88.5433 184.074 88.8119C183.787 89.0806 183.357 89.2149 182.784 89.2149ZM190.468 74.4114C190.468 74.4114 190.405 74.5636 190.28 74.8681C190.155 75.1726 189.984 75.5667 189.77 76.0503C189.573 76.5339 189.349 77.0712 189.098 77.6623C188.847 78.2533 188.596 78.8534 188.346 79.4623C188.095 80.0534 187.862 80.5907 187.647 81.0743C187.45 81.5579 187.289 81.952 187.163 82.2565C187.038 82.561 186.975 82.7132 186.975 82.7132C186.975 82.7132 186.913 82.6236 186.787 82.4445C186.68 82.2654 186.563 82.0953 186.438 81.9341C186.313 81.755 186.25 81.6654 186.25 81.6654C186.25 81.6654 186.456 81.6654 186.868 81.6654C187.28 81.6654 187.808 81.6654 188.453 81.6654C189.098 81.6654 189.779 81.6654 190.495 81.6654C191.229 81.6654 191.91 81.6654 192.537 81.6654C193.182 81.6654 193.71 81.6654 194.122 81.6654C194.534 81.6654 194.74 81.6654 194.74 81.6654C194.74 81.6654 194.677 81.755 194.552 81.9341C194.444 82.0953 194.328 82.2654 194.203 82.4445C194.095 82.6236 194.041 82.7132 194.041 82.7132C194.041 82.7132 193.979 82.561 193.853 82.2565C193.728 81.952 193.558 81.5579 193.343 81.0743C193.128 80.5907 192.895 80.0534 192.644 79.4623C192.411 78.8534 192.161 78.2533 191.892 77.6623C191.641 77.0712 191.408 76.5339 191.193 76.0503C190.996 75.5667 190.835 75.1726 190.71 74.8681C190.585 74.5636 190.522 74.4114 190.522 74.4114C190.522 74.4114 190.513 74.4114 190.495 74.4114C190.477 74.4114 190.468 74.4114 190.468 74.4114ZM204.571 89.2149C203.926 89.2149 203.425 89.0358 203.067 88.6776C202.708 88.3194 202.529 87.8089 202.529 87.1462C202.529 87.1462 202.529 86.9402 202.529 86.5283C202.529 86.0984 202.529 85.5342 202.529 84.8357C202.529 84.1192 202.529 83.3132 202.529 82.4177C202.529 81.5221 202.529 80.5997 202.529 79.6504C202.529 78.6832 202.529 77.7608 202.529 76.8831C202.529 75.9876 202.529 75.1816 202.529 74.4651C202.529 73.7487 202.529 73.1845 202.529 72.7725C202.529 72.3427 202.529 72.1277 202.529 72.1277C202.529 71.465 202.708 70.9546 203.067 70.5963C203.425 70.2381 203.935 70.059 204.598 70.059C204.598 70.059 204.813 70.059 205.243 70.059C205.691 70.059 206.237 70.059 206.882 70.059C207.544 70.059 208.198 70.059 208.843 70.059C209.488 70.059 210.034 70.059 210.482 70.059C210.93 70.059 211.154 70.059 211.154 70.059C213.267 70.059 214.897 70.5963 216.043 71.671C217.19 72.7278 217.763 74.2054 217.763 76.104C217.763 78.0026 217.19 79.4892 216.043 80.5639C214.897 81.6206 213.267 82.149 211.154 82.149C211.154 82.149 211.001 82.149 210.697 82.149C210.392 82.149 210.016 82.149 209.568 82.149C209.121 82.149 208.673 82.149 208.225 82.149C207.777 82.149 207.401 82.149 207.097 82.149C206.792 82.149 206.64 82.149 206.64 82.149C206.64 82.149 206.64 82.2744 206.64 82.5251C206.64 82.758 206.64 83.0625 206.64 83.4386C206.64 83.8147 206.64 84.2177 206.64 84.6476C206.64 85.0596 206.64 85.4626 206.64 85.8566C206.64 86.2327 206.64 86.5462 206.64 86.7969C206.64 87.0298 206.64 87.1462 206.64 87.1462C206.64 88.5254 205.95 89.2149 204.571 89.2149ZM206.64 78.9787C206.64 78.9787 206.765 78.9787 207.016 78.9787C207.285 78.9787 207.607 78.9787 207.983 78.9787C208.359 78.9787 208.736 78.9787 209.112 78.9787C209.488 78.9787 209.801 78.9787 210.052 78.9787C210.321 78.9787 210.455 78.9787 210.455 78.9787C212.712 78.9787 213.84 78.0205 213.84 76.104C213.84 74.2054 212.712 73.2561 210.455 73.2561C210.455 73.2561 210.33 73.2561 210.079 73.2561C209.828 73.2561 209.506 73.2561 209.112 73.2561C208.736 73.2561 208.359 73.2561 207.983 73.2561C207.607 73.2561 207.285 73.2561 207.016 73.2561C206.765 73.2561 206.64 73.2561 206.64 73.2561C206.64 73.2561 206.64 73.3994 206.64 73.686C206.64 73.9547 206.64 74.3039 206.64 74.7338C206.64 75.1637 206.64 75.6204 206.64 76.104C206.64 76.5876 206.64 77.0533 206.64 77.5011C206.64 77.9309 206.64 78.2892 206.64 78.5757C206.64 78.8444 206.64 78.9787 206.64 78.9787ZM229.025 89.2687C227.144 89.2687 225.505 88.8657 224.108 88.0597C222.711 87.2537 221.627 86.1163 220.857 84.6476C220.087 83.1789 219.702 81.4684 219.702 79.5161C219.702 77.5458 220.087 75.8353 220.857 74.3845C221.627 72.9158 222.711 71.7874 224.108 70.9993C225.505 70.1933 227.144 69.7903 229.025 69.7903C230.887 69.7903 232.517 70.1933 233.914 70.9993C235.311 71.7874 236.395 72.9158 237.165 74.3845C237.953 75.8353 238.347 77.5458 238.347 79.5161C238.347 81.4684 237.953 83.1789 237.165 84.6476C236.395 86.1163 235.311 87.2537 233.914 88.0597C232.517 88.8657 230.887 89.2687 229.025 89.2687ZM229.025 85.8029C230.619 85.8029 231.855 85.2566 232.732 84.164C233.628 83.0535 234.076 81.5042 234.076 79.5161C234.076 77.5279 233.628 75.9876 232.732 74.895C231.855 73.8024 230.619 73.2561 229.025 73.2561C227.431 73.2561 226.186 73.8024 225.29 74.895C224.413 75.9876 223.974 77.5279 223.974 79.5161C223.974 81.4863 224.413 83.0266 225.29 84.1371C226.186 85.2476 227.431 85.8029 229.025 85.8029ZM243.531 89.2149C242.241 89.2149 241.596 88.5701 241.596 87.2805C241.596 87.2805 241.596 87.0656 241.596 86.6357C241.596 86.188 241.596 85.5969 241.596 84.8625C241.596 84.1282 241.596 83.3132 241.596 82.4177C241.596 81.5042 241.596 80.5639 241.596 79.5967C241.596 78.6116 241.596 77.6623 241.596 76.7488C241.596 75.8353 241.596 75.0114 241.596 74.2771C241.596 73.5427 241.596 72.9606 241.596 72.5307C241.596 72.1009 241.596 71.8859 241.596 71.8859C241.596 71.2232 241.757 70.7217 242.08 70.3814C242.42 70.0232 242.85 69.8441 243.369 69.8441C243.853 69.8441 244.229 69.9336 244.498 70.1127C244.766 70.2918 245.071 70.5874 245.411 70.9993C245.411 70.9993 245.546 71.1695 245.814 71.5098C246.083 71.8501 246.441 72.3158 246.889 72.9069C247.337 73.48 247.838 74.1338 248.393 74.8681C248.967 75.5846 249.549 76.3279 250.14 77.0981C250.749 77.8682 251.331 78.6116 251.886 79.328C252.459 80.0444 252.97 80.6982 253.418 81.2893C253.865 81.8624 254.224 82.3192 254.492 82.6595C254.761 82.9998 254.895 83.1699 254.895 83.1699C254.895 83.1699 254.833 83.1699 254.707 83.1699C254.6 83.1699 254.483 83.1699 254.358 83.1699C254.232 83.1699 254.17 83.1699 254.17 83.1699C254.17 83.1699 254.17 82.964 254.17 82.552C254.17 82.14 254.17 81.6027 254.17 80.94C254.17 80.2594 254.17 79.5161 254.17 78.7101C254.17 77.8862 254.17 77.0712 254.17 76.2652C254.17 75.4413 254.17 74.698 254.17 74.0353C254.17 73.3546 254.17 72.8084 254.17 72.3964C254.17 71.9844 254.17 71.7785 254.17 71.7785C254.17 71.1516 254.331 70.6769 254.653 70.3545C254.994 70.0142 255.468 69.8441 256.077 69.8441C256.686 69.8441 257.152 70.0142 257.474 70.3545C257.797 70.6769 257.958 71.1516 257.958 71.7785C257.958 71.7785 257.958 72.0024 257.958 72.4501C257.958 72.88 257.958 73.4711 257.958 74.2233C257.958 74.9577 257.958 75.7816 257.958 76.6951C257.958 77.6085 257.958 78.5668 257.958 79.5698C257.958 80.5549 257.958 81.5042 257.958 82.4177C257.958 83.3311 257.958 84.164 257.958 84.9163C257.958 85.6506 257.958 86.2417 257.958 86.6895C257.958 87.1372 257.958 87.3611 257.958 87.3611C257.958 87.9343 257.806 88.391 257.501 88.7313C257.215 89.0537 256.821 89.2149 256.319 89.2149C255.818 89.2149 255.424 89.1254 255.137 88.9463C254.85 88.7672 254.537 88.4716 254.197 88.0597C254.197 88.0597 254.062 87.8895 253.794 87.5492C253.525 87.2089 253.167 86.7432 252.719 86.1521C252.271 85.5611 251.761 84.9073 251.188 84.1909C250.632 83.4744 250.05 82.7311 249.441 81.9609C248.832 81.1908 248.241 80.4474 247.668 79.731C247.113 78.9966 246.611 78.3429 246.164 77.7697C245.734 77.1787 245.384 76.713 245.116 76.3727C244.847 76.0324 244.713 75.8622 244.713 75.8622C244.713 75.8622 244.766 75.8622 244.874 75.8622C244.999 75.8622 245.116 75.8622 245.223 75.8622C245.349 75.8622 245.411 75.8622 245.411 75.8622C245.411 75.8622 245.411 76.0682 245.411 76.4801C245.411 76.8921 245.411 77.4384 245.411 78.119C245.411 78.7817 245.411 79.525 245.411 80.3489C245.411 81.1728 245.411 81.9878 245.411 82.7938C245.411 83.5998 245.411 84.3431 245.411 85.0237C245.411 85.7044 245.411 86.2506 245.411 86.6626C245.411 87.0746 245.411 87.2805 245.411 87.2805C245.411 88.5701 244.784 89.2149 243.531 89.2149Z" fill="#4C5667"/>
<path d="M70 106.5C58.0001 93 54.5 81 53.1548 68L70 83L77.5 88.5C63.2122 89.3688 70 106.5 70 106.5Z" fill="url(#paint1_linear_6623_30803)"/>
<defs>
<linearGradient id="paint0_linear_6623_30803" x1="46.8383" y1="78.5" x2="287.743" y2="78.5" gradientUnits="userSpaceOnUse">
<stop stop-color="#21293B"/>
<stop offset="1" stop-color="#3D4759"/>
</linearGradient>
<linearGradient id="paint1_linear_6623_30803" x1="54.5" y1="81.5" x2="73.1031" y2="72.2102" gradientUnits="userSpaceOnUse">
<stop stop-color="#717171"/>
<stop offset="0.124427" stop-color="#C5C5C5"/>
<stop offset="0.306396" stop-color="#FDFDFD"/>
<stop offset="1" stop-color="#FDFDFD"/>
</linearGradient>
</defs>
</svg>
